<?xml version="1.0" encoding="UTF-8"?>
<svg version="1.1" viewBox="0 0 1890 1417" width="1890" height="1417" xmlns="http://www.w3.org/2000/svg">
<path transform="translate(763,51)" d="m0 0h7v8h2v-8h7v16h2v-9l6 1 9 8 5 10v7h-61l1-8 4-8 8-8 4-2 4 1v8h2z" fill="#FEFEFE"/>
<path transform="translate(734,99)" d="m0 0h18l5 12 8 5 3 1h7l8-4 4-4 3-10h17l1 1v5l-7 2-3 6 1 4 3 3-2 4-6 6-4-1-3-4-8 4-1 7-1 1h-13l-1-8-6-3-4 1-2 3-4-1-7-7 4-8-3-6v-2h-7l-1-1v-5z" fill="#FEFEFE"/>
<path transform="translate(735,86)" d="m0 0h72l1 1v6l-1 1h-72l-1-1v-6z" fill="#FEFEFE"/>
</svg>
