<svg xmlns="http://www.w3.org/2000/svg" width="1890" height="1417" viewBox="0 0 1890 1417" version="1.1"><path d="M 763 59 C 763 67.326, 761.344 70.164, 760.807 62.759 C 760.422 57.444, 758.786 57.002, 753.253 60.719 C 747.992 64.252, 743.512 70.154, 741.435 76.287 C 738.685 84.410, 737.116 84, 770.969 84 L 801 84 801 80.968 C 801 74.566, 795.775 66.023, 788.747 60.932 C 782.766 56.599, 781 56.956, 781 62.500 C 781 64.975, 780.550 67, 780 67 C 779.417 67, 779 63.667, 779 59 L 779 51 775.500 51 C 772.083 51, 772 51.095, 772 55 C 772 57.200, 771.550 59, 771 59 C 770.450 59, 770 57.200, 770 55 C 770 51.095, 769.917 51, 766.500 51 L 763 51 763 59 M 734.394 87.415 C 734.090 88.207, 733.990 89.900, 734.171 91.177 L 734.500 93.500 771 93.500 L 807.500 93.500 807.500 90 L 807.500 86.500 771.223 86.237 C 740.404 86.014, 734.864 86.192, 734.394 87.415 M 733.702 99.632 C 733.316 100.018, 733 101.608, 733 103.167 C 733 105.790, 733.287 106, 736.873 106 C 740.536 106, 740.856 106.256, 742.796 110.738 C 743.924 113.344, 744.544 115.707, 744.174 115.988 C 743.803 116.270, 742.631 117.525, 741.569 118.778 L 739.639 121.056 744.028 125.528 C 746.441 127.988, 748.871 130, 749.426 130 C 749.982 130, 751.486 128.779, 752.768 127.287 C 754.730 125.004, 755.369 124.768, 756.800 125.801 C 757.735 126.476, 759.737 127.516, 761.250 128.112 C 763.603 129.039, 764 129.766, 764 133.144 L 764 137.091 770.750 136.796 L 777.500 136.500 778 132.814 C 778.395 129.904, 779.335 128.564, 782.469 126.446 L 786.439 123.763 789.042 126.881 C 790.474 128.597, 792.082 130, 792.615 130 C 793.148 130, 795.566 127.980, 797.989 125.511 L 802.395 121.022 799.502 118.002 L 796.610 114.983 798.792 110.492 C 800.773 106.414, 801.303 106, 804.550 106 C 807.983 106, 808.114 105.869, 807.813 102.750 L 807.500 99.500 798.878 99.213 L 790.256 98.926 789.093 103.546 C 787.298 110.675, 778.440 118, 771.615 118 C 768.455 118, 759.998 114.375, 757.898 112.121 C 755.602 109.656, 753.756 106.002, 753.038 102.500 L 752.423 99.500 743.413 99.215 C 738.457 99.058, 734.087 99.246, 733.702 99.632" stroke="none" fill="#fffcfc" fill-rule="evenodd"/><path d="" stroke="none" fill="#fcfcfc" fill-rule="evenodd"/></svg>